<svg xmlns="http://www.w3.org/2000/svg" width="18px" height="18px">
<path fill-rule="evenodd" fill="rgb(255, 255, 255)" d="M10.909,8.595 L9.900,9.604 L9.900,5.850 C9.900,5.353 9.497,4.950 9.000,4.950 C8.503,4.950 8.100,5.353 8.100,5.850 L8.100,9.604 L7.091,8.595 C6.739,8.244 6.169,8.244 5.818,8.595 C5.466,8.947 5.466,9.517 5.818,9.868 L8.363,12.414 L8.363,12.414 C8.539,12.589 8.769,12.677 9.000,12.677 C9.115,12.677 9.230,12.655 9.338,12.611 C9.447,12.567 9.549,12.501 9.636,12.414 L12.181,9.868 C12.533,9.517 12.533,8.947 12.181,8.596 C11.831,8.243 11.260,8.243 10.909,8.595 ZM13.500,1.206 C9.195,-1.280 3.691,0.195 1.206,4.500 C-1.279,8.804 0.195,14.308 4.500,16.794 C8.804,19.279 14.309,17.804 16.794,13.500 C19.280,9.196 17.804,3.691 13.500,1.206 ZM15.235,12.600 C13.246,16.043 8.843,17.223 5.400,15.235 C1.956,13.247 0.776,8.844 2.764,5.400 C4.752,1.956 9.156,0.776 12.600,2.765 C16.043,4.752 17.223,9.156 15.235,12.600 Z"/>
</svg>
