<svg xmlns="http://www.w3.org/2000/svg" width="20px" height="18px">
    <path fill-rule="evenodd" fill="rgb(0, 158, 226)" d="M14.198,0.108 L0.954,5.327 C0.176,5.634 -0.207,6.534 0.101,7.333 L3.830,16.999 C4.138,17.795 5.022,18.199 5.802,17.892 L19.046,12.673 C19.821,12.367 20.208,11.468 19.899,10.666 L16.169,1.001 C15.862,0.205 14.978,-0.200 14.198,0.108 ZM14.376,1.151 L10.513,10.239 L1.527,6.215 L14.376,1.151 ZM4.695,16.427 L1.118,7.158 L7.433,9.986 L4.695,16.427 ZM5.624,16.848 L8.364,10.403 L10.578,11.394 C10.834,11.509 11.131,11.391 11.242,11.131 L12.178,8.929 L18.478,11.783 L5.624,16.848 ZM18.880,10.837 L12.580,7.983 L15.305,1.572 L18.880,10.837 Z"/>
</svg>
