<svg xmlns="http://www.w3.org/2000/svg" width="32px" height="33px">
<path fill-rule="evenodd" fill="rgb(0, 158, 226)" d="M23.552,25.712 C23.372,25.685 23.189,25.660 23.004,25.636 C22.651,25.589 22.402,25.259 22.448,24.899 C22.494,24.539 22.817,24.285 23.170,24.332 C23.360,24.357 23.549,24.383 23.734,24.410 C24.086,24.462 24.331,24.795 24.281,25.154 C24.235,25.482 23.959,25.719 23.644,25.719 C23.613,25.719 23.583,25.716 23.552,25.712 ZM25.939,26.144 C25.591,26.067 25.370,25.717 25.445,25.362 C25.520,25.007 25.863,24.782 26.211,24.859 C30.052,25.707 32.000,26.914 32.000,28.444 C32.000,29.856 30.322,30.998 27.014,31.838 C24.064,32.587 20.152,33.000 16.000,33.000 C11.847,33.000 7.936,32.587 4.986,31.838 C1.678,30.998 -0.000,29.856 -0.000,28.444 C-0.000,27.242 1.201,26.230 3.568,25.438 C5.381,24.831 7.768,24.382 10.523,24.126 C10.470,24.064 10.417,24.001 10.363,23.938 C8.833,22.102 7.612,20.210 6.734,18.314 C5.626,15.920 5.064,13.512 5.064,11.157 C5.064,5.005 9.970,-0.000 16.000,-0.000 C22.030,-0.000 26.936,5.005 26.936,11.157 C26.936,13.512 26.374,15.920 25.266,18.314 C24.388,20.210 23.167,22.102 21.636,23.938 C19.040,27.050 16.479,28.904 16.371,28.981 C16.259,29.061 16.130,29.101 16.000,29.101 C15.870,29.101 15.740,29.061 15.629,28.981 C15.539,28.916 13.728,27.606 11.618,25.355 C8.583,25.579 5.873,26.051 3.970,26.688 C1.991,27.350 1.289,28.047 1.289,28.444 C1.289,28.853 2.133,29.759 5.298,30.563 C8.148,31.286 11.949,31.685 16.000,31.685 C20.051,31.685 23.851,31.286 26.702,30.563 C29.867,29.759 30.711,28.853 30.711,28.444 C30.711,28.013 29.714,26.978 25.939,26.144 ZM16.000,27.624 C16.794,27.001 18.747,25.378 20.675,23.061 C22.944,20.336 25.647,16.059 25.647,11.157 C25.647,5.730 21.319,1.315 16.000,1.315 C10.680,1.315 6.353,5.730 6.353,11.157 C6.353,16.069 9.067,20.355 11.345,23.085 C13.271,25.395 15.208,27.004 16.000,27.624 ZM16.000,5.890 C18.847,5.890 21.162,8.253 21.162,11.157 C21.162,14.062 18.847,16.424 16.000,16.424 C13.153,16.424 10.837,14.062 10.837,11.157 C10.837,8.253 13.153,5.890 16.000,5.890 ZM16.000,15.109 C18.136,15.109 19.874,13.337 19.874,11.157 C19.874,8.978 18.136,7.205 16.000,7.205 C13.864,7.205 12.126,8.978 12.126,11.157 C12.126,13.337 13.864,15.109 16.000,15.109 Z"/>
</svg>
