<?xml version="1.0" encoding="utf-8"?>
<!-- Generator: Adobe Illustrator 21.0.0, SVG Export Plug-In . SVG Version: 6.00 Build 0)  -->
<svg version="1.1" id="Vrstva_1" xmlns="http://www.w3.org/2000/svg" xmlns:xlink="http://www.w3.org/1999/xlink" x="0px" y="0px"
	 viewBox="0 0 595.28 184.11" style="enable-background:new 0 0 595.28 184.11;" xml:space="preserve">
<style type="text/css">
	.st0{fill:#A8A8A7;}
	.st1{fill:#009FE3;}
	.st2{fill:#4A4A49;}
</style>
<path class="st0" d="M47.32,163.51c-0.25-1.44-0.76-2.96-3.98-2.96c-3.22,0-3.64,1.23-3.64,2.2c0,3.56,14.1,0.98,14.1,9.27
	c0,6.56-6.35,7.75-9.86,7.75c-5.12,0-10.67-1.78-10.84-7.79h6.1c0,1.91,1.18,3.3,4.91,3.3c3.05,0,3.77-1.48,3.77-2.33
	c0-3.77-13.97-0.93-13.97-9.36c0-3.3,2.08-7.54,9.1-7.54c4.4,0,9.65,1.1,10.12,7.45H47.32z"/>
<path class="st0" d="M76.24,172.57c-1.57,5.42-6.05,7.2-9.91,7.2c-6.35,0-11.22-3.05-11.22-12.32c0-2.71,0.93-11.39,10.8-11.39
	c4.44,0,10.58,2.12,10.58,12.4v1.06H61.04c0.17,1.69,0.51,5.5,5.29,5.5c1.65,0,3.35-0.85,3.81-2.46H76.24z M70.39,165.67
	c-0.34-3.64-2.67-4.74-4.57-4.74c-2.79,0-4.28,1.78-4.62,4.74H70.39z"/>
<path class="st0" d="M98.51,172.57c-1.57,5.42-6.05,7.2-9.91,7.2c-6.35,0-11.22-3.05-11.22-12.32c0-2.71,0.93-11.39,10.8-11.39
	c4.44,0,10.58,2.12,10.58,12.4v1.06H83.31c0.17,1.69,0.51,5.5,5.29,5.5c1.65,0,3.35-0.85,3.81-2.46H98.51z M92.67,165.67
	c-0.34-3.64-2.67-4.74-4.57-4.74c-2.79,0-4.28,1.78-4.61,4.74H92.67z"/>
<path class="st0" d="M118.62,155.1h3.68v4.23h-3.68v12.24c0,1.31,0.04,1.82,2.45,1.82c0.38,0,0.81-0.04,1.23-0.09v4.49
	c-0.93,0.04-1.86,0.08-2.79,0.08h-0.76c-5.12,0-6.05-1.95-6.05-4.87v-13.68h-3.05v-4.23h3.05V149h5.93V155.1z"/>
<path class="st0" d="M145.17,177.62h-5.93v-13.67c0-1.65-0.08-4.44-3.85-4.44c-2.62,0-4.66,1.78-4.66,5.21v12.91h-5.93v-30.4h5.93
	v10.79h0.09c0.76-1.86,3.3-3.51,6.52-3.51c4.4,0,7.83,2.58,7.83,7.53V177.62z"/>
<path class="st0" d="M168.79,171.02c-1.57,5.42-6.05,7.2-9.91,7.2c-6.35,0-11.22-3.05-11.22-12.32c0-2.71,0.93-11.39,10.8-11.39
	c4.44,0,10.58,2.12,10.58,12.4v1.06h-15.45c0.17,1.69,0.51,5.5,5.29,5.5c1.65,0,3.35-0.85,3.81-2.46H168.79z M162.95,164.11
	c-0.34-3.64-2.67-4.74-4.57-4.74c-2.79,0-4.27,1.78-4.62,4.74H162.95z"/>
<path class="st0" d="M202.88,177.62h-5.8v-2.84h-0.08c-1.44,2.54-4.06,3.43-6.52,3.43c-6.69,0-9.48-5.92-9.48-12.1
	c0-7.79,4.4-11.6,9.36-11.6c3.81,0,5.59,2.07,6.52,3.51h0.08v-10.8h5.93V177.62z M191.96,173.34c3.77,0,5.25-3.13,5.25-6.48
	c0-3.6-1.02-7.24-5.08-7.24c-3.77,0-5.04,3.34-5.04,6.9C187.09,169.2,188.15,173.34,191.96,173.34"/>
<path class="st0" d="M213,152.43h-5.93v-5.22H213V152.43z M213,177.62h-5.93V155.1H213V177.62z"/>
<path class="st0" d="M224.26,177.62h-5.93v-18.29h-3.26v-4.23h3.26v-1.82c0-4.66,2.54-6.43,6.6-6.43c1.74,0,2.54,0.04,3.05,0.08
	v4.78h-1.65c-2.03,0-2.07,0.64-2.07,2.5v0.89h3.85v4.23h-3.85V177.62z"/>
<path class="st0" d="M234.97,177.62h-5.93v-18.29h-3.26v-4.23h3.26v-1.82c0-4.66,2.54-6.43,6.6-6.43c1.74,0,2.54,0.04,3.05,0.08
	v4.78h-1.65c-2.03,0-2.07,0.64-2.07,2.5v0.89h3.85v4.23h-3.85V177.62z"/>
<path class="st0" d="M259.91,171.02c-1.57,5.42-6.05,7.2-9.91,7.2c-6.35,0-11.22-3.05-11.22-12.32c0-2.71,0.93-11.39,10.79-11.39
	c4.44,0,10.58,2.12,10.58,12.4v1.06h-15.45c0.17,1.69,0.51,5.5,5.29,5.5c1.65,0,3.34-0.85,3.81-2.46H259.91z M254.07,164.11
	c-0.34-3.64-2.67-4.74-4.57-4.74c-2.79,0-4.27,1.78-4.62,4.74H254.07z"/>
<path class="st0" d="M262.79,155.1h5.67v3.89h0.08c1.23-2.29,2.58-4.49,6.18-4.49c0.38,0,0.76,0.04,1.14,0.08v6.01
	c-0.51-0.08-1.14-0.08-1.69-0.08c-4.61,0-5.46,2.88-5.46,5.38v11.73h-5.93V155.1z"/>
<path class="st0" d="M296.54,171.02c-1.57,5.42-6.05,7.2-9.91,7.2c-6.35,0-11.22-3.05-11.22-12.32c0-2.71,0.93-11.39,10.8-11.39
	c4.44,0,10.58,2.12,10.58,12.4v1.06h-15.45c0.17,1.69,0.51,5.5,5.29,5.5c1.65,0,3.35-0.85,3.81-2.46H296.54z M290.69,164.11
	c-0.34-3.64-2.67-4.74-4.57-4.74c-2.79,0-4.27,1.78-4.62,4.74H290.69z"/>
<path class="st0" d="M319.82,177.62h-5.93v-13.67c0-1.65-0.09-4.44-3.85-4.44c-2.63,0-4.66,1.78-4.66,5.21v12.91h-5.93V155.1h5.67
	v3.3h0.08c0.8-1.36,2.5-3.89,6.77-3.89c4.4,0,7.83,2.58,7.83,7.53V177.62z"/>
<path class="st0" d="M343.49,169.41c-0.21,2.33-2.03,8.81-10.29,8.81c-8.47,0-10.42-6.48-10.42-11.22c0-7.28,3.18-12.49,10.8-12.49
	c3.56,0,9.4,1.61,9.95,8.64h-6.01c-0.26-1.44-1.1-3.64-3.64-3.64h-0.3c-3.72,0-4.7,3.73-4.7,6.52c0,2.46,0.08,7.32,4.57,7.32
	c3,0,4.02-2.88,4.02-3.94H343.49z"/>
<path class="st0" d="M365.76,171.02c-1.57,5.42-6.05,7.2-9.9,7.2c-6.35,0-11.22-3.05-11.22-12.32c0-2.71,0.93-11.39,10.8-11.39
	c4.44,0,10.58,2.12,10.58,12.4v1.06h-15.45c0.17,1.69,0.51,5.5,5.29,5.5c1.65,0,3.34-0.85,3.81-2.46H365.76z M359.92,164.11
	c-0.34-3.64-2.67-4.74-4.57-4.74c-2.79,0-4.27,1.78-4.61,4.74H359.92z"/>
<path class="st0" d="M374.61,169.2h-3.13l-1.69-14.22v-7.87h6.52v7.87L374.61,169.2z M376.14,177.62h-6.18v-5.97h6.18V177.62z"/>
<path class="st1" d="M571.03,82.37v10.26h1.93V88.6h1.52c1.01,0,1.73,0.11,2.14,0.33c0.69,0.38,1.03,1.17,1.03,2.35v0.81l0.04,0.33
	c0.01,0.04,0.02,0.08,0.03,0.11c0.01,0.03,0.02,0.06,0.03,0.1h1.81l-0.07-0.13c-0.04-0.08-0.08-0.26-0.09-0.53
	c-0.02-0.27-0.03-0.53-0.03-0.76v-0.75c0-0.52-0.2-1.05-0.59-1.59c-0.4-0.54-1.02-0.88-1.87-1.01c0.67-0.11,1.2-0.27,1.58-0.5
	c0.71-0.43,1.07-1.1,1.07-2.02c0-1.29-0.57-2.16-1.7-2.6c-0.63-0.25-1.62-0.37-2.98-0.37H571.03z M577.65,85.49
	c0,0.79-0.38,1.32-1.13,1.61c-0.41,0.15-1.02,0.23-1.84,0.23h-1.74V83.6h1.64c1.07,0,1.85,0.13,2.33,0.38
	C577.41,84.24,577.65,84.74,577.65,85.49 M585,87.53c0-2.58-0.97-4.78-2.92-6.59c-1.94-1.81-4.29-2.73-7.05-2.73
	c-2.74,0-5.08,0.91-7,2.73c-1.94,1.83-2.91,4.02-2.91,6.59c0,2.6,0.96,4.81,2.88,6.63c1.93,1.83,4.27,2.75,7.03,2.75
	c2.75,0,5.1-0.92,7.05-2.75C584.03,92.32,585,90.11,585,87.53 M575.04,79.48c2.37,0,4.39,0.79,6.06,2.37
	c1.66,1.57,2.5,3.46,2.5,5.69c0,2.24-0.83,4.15-2.5,5.73c-1.66,1.58-3.68,2.37-6.06,2.37c-2.37,0-4.39-0.79-6.05-2.37
	c-1.65-1.58-2.48-3.49-2.48-5.73c0-2.23,0.83-4.12,2.49-5.69C570.67,80.27,572.68,79.48,575.04,79.48"/>
<path class="st1" d="M559.87,81.34h-13.89l-10.24,34.57h-0.18l-10.71-34.57h-14.65l18.41,48.86c-1.22,6.44-3.85,7.06-8.64,7.06
	c-1.13,0-1.97-0.09-2.54-0.18v9.88c1.88,0.09,4.13,0.18,5.92,0.18c11.46,0,13.15-2.3,19.35-19.67L559.87,81.34z M496.38,111.41
	c0,5.73-5.92,9.26-11.74,9.26c-2.54,0-6.1-1.33-6.1-5.65c0-5.12,4.04-6.26,8.92-7.06c5.44-0.79,7.61-1.58,8.92-2.55V111.41z
	 M509.25,93.69c0-11.55-12.87-13.58-19.91-13.58c-10.24,0-20.85,2.03-22.35,16.41h12.68c0.37-2.73,1.51-6.53,8.07-6.53
	c3.39,0,8.64,0.26,8.64,5.47c0,2.64-2.53,3.44-4.6,3.7l-11.83,1.67c-8.36,1.15-14.56,5.82-14.56,14.99c0,9.7,7.7,13.67,15.21,13.67
	c8.92,0,13.15-3.88,16.15-6.79c0.28,2.65,0.47,3.31,1.22,5.52h14.18v-1.82c-1.6-0.53-2.91-1.76-2.91-7.32V93.69z M461.83,64.93
	h-13.15v63.29h13.15V64.93z M408.86,81.34h-12.58v65.76h13.15v-24.84h0.19c1.59,2.56,4.88,7.23,14.09,7.23
	c14.84,0,21.04-12.35,21.04-25.22c0-16.23-9.76-24.17-20.76-24.17c-8.83,0-12.49,4.32-14.93,8.03h-0.19V81.34z M408.86,105.86
	c0-7.49,2.16-15.08,11.18-15.08c8.36,0,11.18,6.97,11.18,14.38c0,5.56-2.35,14.2-10.8,14.2
	C412.05,119.35,408.86,112.83,408.86,105.86 M391.11,95.63c-1.04-13.23-12.68-15.52-22.44-15.52c-15.59,0-20.19,8.82-20.19,15.7
	c0,17.55,30.99,11.64,30.99,19.49c0,1.77-1.6,4.85-8.36,4.85c-8.26,0-10.89-2.91-10.89-6.88h-13.52
	c0.37,12.52,12.68,16.22,24.04,16.22c7.79,0,21.88-2.46,21.88-16.14c0-17.29-31.28-11.91-31.28-19.31c0-2.03,0.94-4.59,8.08-4.59
	c7.14,0,8.26,3.18,8.83,6.18H391.11z M329.88,128.22h13.14V81.34h-13.14V128.22z M288.37,105.15c0-7.41,2.82-14.38,11.17-14.38
	c9.02,0,11.27,7.59,11.27,15.08c0,6.97-3.29,13.5-11.65,13.5C290.72,119.35,288.37,110.71,288.37,105.15 M323.4,64.93h-13.15v22.49
	h-0.19c-2.07-3-6.01-7.32-14.46-7.32c-10.99,0-20.75,7.94-20.75,24.17c0,12.88,6.2,25.22,21.04,25.22c5.45,0,11.27-1.85,14.46-7.14
	h0.19v5.87h12.86V64.93z"/>
<path class="st2" d="M271.23,95.8c0-10.32-7.61-15.7-17.37-15.7c-9.48,0-13.24,5.29-15.02,8.11h-0.19v-6.88h-12.58v46.89h13.15
	v-26.87c0-7.15,4.51-10.85,10.33-10.85c8.36,0,8.55,5.82,8.55,9.26v28.46h13.15V95.8z M189.06,100.19
	c0.75-6.18,4.04-9.88,10.24-9.88c4.23,0,9.39,2.29,10.14,9.88H189.06z M208.87,114.57c-1.03,3.35-4.79,5.12-8.45,5.12
	c-10.61,0-11.36-7.94-11.74-11.47h34.28v-2.21c0-21.43-13.62-25.84-23.48-25.84c-21.88,0-23.95,18.08-23.95,23.72
	c0,19.32,10.8,25.66,24.88,25.66c8.55,0,18.5-3.71,21.98-14.99H208.87z M174.03,95.69c-1.03-13.23-12.68-15.52-22.45-15.52
	c-15.59,0-20.19,8.82-20.19,15.7c0,17.55,30.99,11.64,30.99,19.49c0,1.76-1.59,4.85-8.36,4.85c-8.27,0-10.89-2.92-10.89-6.88h-13.52
	c0.37,12.52,12.68,16.23,24.04,16.23c7.79,0,21.88-2.47,21.88-16.14c0-17.29-31.27-11.91-31.27-19.32c0-2.03,0.94-4.59,8.08-4.59
	c7.13,0,8.26,3.18,8.83,6.18H174.03z M126.32,95.8c0-10.32-7.61-15.7-17.37-15.7c-9.48,0-13.24,5.29-15.03,8.11h-0.19v-6.88H81.15
	l0,46.89H94.3v-26.87c0-7.15,4.51-10.85,10.33-10.85c8.35,0,8.54,5.82,8.54,9.26l0,28.46h13.15L126.32,95.8z M64.06,111.48
	c0,5.73-5.92,9.26-11.74,9.26c-2.54,0-6.11-1.32-6.11-5.64c0-5.11,4.04-6.26,8.92-7.06c5.45-0.79,7.61-1.58,8.92-2.55V111.48z
	 M76.93,93.76c0-11.55-12.87-13.58-19.91-13.58c-10.24,0-20.85,2.03-22.35,16.4h12.68c0.38-2.73,1.5-6.53,8.08-6.53
	c3.38,0,8.64,0.26,8.64,5.47c0,2.64-2.53,3.44-4.6,3.7l-11.83,1.68c-8.36,1.15-14.56,5.82-14.56,14.99c0,9.7,7.7,13.67,15.21,13.67
	c8.92,0,13.15-3.88,16.16-6.79c0.28,2.65,0.47,3.25,1.21,5.45h14.18l0-1.75c-1.59-0.53-2.91-1.76-2.91-7.32V93.76z M29.53,81.34
	H16.4l-0.05,51.58c0,4.32-2.54,4.32-3.85,4.32h-2.35v9.88h3.29c10.05,0,16.06-1.68,16.06-13.93L29.53,81.34z"/>
<path class="st1" d="M343.02,74.24l0-59.66c0-5.39-4.1-11.13-10.96-11.13L27.44,3.51c-5.39,0-11.04,4.26-11.04,11.13l0,59.6
	l13.12-0.02V16.61l300.36,0.02v57.61H343.02z"/>
</svg>
