<svg xmlns="http://www.w3.org/2000/svg" width="32px" height="32px">
<path fill-rule="evenodd" fill="rgb(0, 158, 226)" d="M31.265,15.156 C31.212,15.163 31.166,15.169 31.114,15.169 C30.687,15.169 30.313,14.859 30.241,14.413 C29.723,11.266 28.279,8.395 26.062,6.113 C23.844,3.836 21.056,2.344 17.998,1.810 C17.513,1.723 17.191,1.257 17.270,0.757 C17.355,0.264 17.808,-0.074 18.287,0.014 C21.712,0.615 24.828,2.276 27.308,4.829 C29.788,7.382 31.402,10.590 31.986,14.116 C32.071,14.609 31.743,15.082 31.265,15.156 ZM18.044,5.815 C20.124,6.180 22.020,7.193 23.523,8.740 C25.025,10.286 26.009,12.238 26.363,14.379 C26.442,14.879 26.121,15.352 25.635,15.433 C25.583,15.440 25.537,15.446 25.484,15.446 C25.058,15.446 24.684,15.136 24.612,14.690 C24.316,12.920 23.510,11.313 22.263,10.030 C21.016,8.746 19.455,7.909 17.736,7.612 C17.250,7.531 16.935,7.051 17.021,6.558 C17.106,6.065 17.559,5.734 18.044,5.815 ZM12.166,11.833 C11.680,12.339 11.181,12.866 10.643,13.373 C11.044,14.284 11.595,15.183 12.415,16.250 C14.108,18.391 15.873,20.046 17.815,21.315 C18.005,21.437 18.228,21.552 18.464,21.673 C18.628,21.761 18.799,21.849 18.969,21.943 L21.043,19.816 C21.705,19.134 22.479,18.776 23.287,18.776 C24.100,18.776 24.868,19.141 25.504,19.822 L29.106,23.544 C29.769,24.219 30.116,25.023 30.116,25.860 C30.116,26.691 29.775,27.502 29.126,28.197 C28.843,28.501 28.555,28.792 28.273,29.069 C27.859,29.480 27.466,29.866 27.125,30.291 C27.118,30.304 27.105,30.311 27.098,30.325 C26.101,31.439 24.828,32.000 23.313,32.000 C23.181,32.000 23.037,31.993 22.899,31.986 C20.649,31.838 18.635,30.966 17.126,30.230 C13.176,28.265 9.718,25.476 6.845,21.943 C4.476,19.012 2.888,16.277 1.826,13.325 C1.392,12.123 0.828,10.286 0.986,8.314 C1.091,7.092 1.570,6.038 2.410,5.174 L4.640,2.857 C4.647,2.850 4.647,2.850 4.653,2.844 C5.309,2.195 6.084,1.851 6.884,1.851 C7.685,1.851 8.446,2.195 9.082,2.844 C9.509,3.249 9.922,3.681 10.315,4.100 C10.512,4.316 10.722,4.532 10.926,4.741 L12.717,6.585 C14.095,8.004 14.095,9.840 12.717,11.259 C12.533,11.448 12.349,11.644 12.166,11.833 ZM11.470,7.875 L9.679,6.031 C9.469,5.808 9.259,5.592 9.056,5.376 C8.655,4.951 8.275,4.552 7.875,4.167 C7.868,4.161 7.862,4.154 7.855,4.147 C7.645,3.931 7.310,3.674 6.897,3.674 C6.563,3.674 6.221,3.843 5.900,4.154 L3.663,6.457 C3.118,7.017 2.823,7.673 2.757,8.463 C2.659,9.699 2.882,11.009 3.492,12.691 C4.483,15.446 5.979,18.013 8.216,20.788 C10.926,24.118 14.186,26.745 17.900,28.596 C19.258,29.264 21.069,30.048 23.017,30.176 C23.116,30.183 23.221,30.183 23.319,30.183 C24.343,30.183 25.124,29.838 25.786,29.109 C26.193,28.616 26.626,28.177 27.052,27.758 C27.335,27.475 27.597,27.218 27.853,26.934 C28.522,26.219 28.522,25.509 27.846,24.821 L24.231,21.099 C24.225,21.093 24.225,21.093 24.218,21.085 C24.015,20.856 23.680,20.593 23.273,20.593 C22.860,20.593 22.506,20.869 22.283,21.099 L20.039,23.409 C19.927,23.524 19.586,23.875 19.041,23.875 C18.825,23.875 18.615,23.821 18.392,23.706 C18.366,23.693 18.339,23.672 18.313,23.659 C18.123,23.537 17.900,23.422 17.664,23.301 C17.401,23.166 17.126,23.024 16.857,22.848 C14.751,21.477 12.841,19.688 11.031,17.391 L11.024,17.385 C10.027,16.081 9.371,14.987 8.905,13.825 C8.898,13.805 8.892,13.785 8.885,13.765 C8.767,13.379 8.662,12.812 9.226,12.231 C9.233,12.218 9.246,12.211 9.259,12.198 C9.830,11.671 10.355,11.131 10.906,10.550 C11.096,10.361 11.280,10.165 11.470,9.969 C12.166,9.253 12.166,8.591 11.470,7.875 Z"/>
</svg>
